<svg width="559" height="96" viewBox="0 0 559 96" fill="none" xmlns="http://www.w3.org/2000/svg">
<path d="M2.015 56.395V48.205L22.165 34.1V43.265L9.62 52.3L22.165 61.335V70.5L2.015 56.395ZM524.442 24.35H530.162L513.977 77H508.322L524.442 24.35ZM536.459 61.335L549.069 52.235L536.459 43.265V34.1L556.609 48.205V56.395L536.459 70.5V61.335Z" fill="#C65715"/>
<path d="M29.7984 24.35H44.2934C50.0568 24.35 54.4118 25.3683 57.3584 27.405C60.3051 29.4417 61.7784 33.06 61.7784 38.26C61.7784 41.77 61.3234 44.565 60.4134 46.645C59.5034 48.725 57.8134 50.35 55.3434 51.52L62.5584 77H50.5334L44.7484 53.405H41.4334V77H29.7984V24.35ZM44.6834 46.71C47.0234 46.71 48.6484 46.1033 49.5584 44.89C50.5118 43.6333 50.9884 41.77 50.9884 39.3C50.9884 36.9167 50.5551 35.14 49.6884 33.97C48.8218 32.7567 47.3268 32.15 45.2034 32.15H41.4334V46.71H44.6834ZM68.773 24.35H92.433V32.28H80.408V45.345H89.573V53.405H80.408V69.135H92.563V77H68.773V24.35ZM112.925 77.78C107.205 77.78 103.132 76.285 100.705 73.295C98.322 70.2617 97.1303 65.9067 97.1303 60.23V41.25C97.1303 35.4433 98.322 31.0667 100.705 28.12C103.089 25.13 107.162 23.635 112.925 23.635C118.429 23.635 122.329 24.9567 124.625 27.6C126.922 30.2433 128.07 33.9917 128.07 38.845V43.395H116.695V38.13C116.695 36.0933 116.479 34.5333 116.045 33.45C115.612 32.3667 114.572 31.825 112.925 31.825C111.279 31.825 110.195 32.41 109.675 33.58C109.155 34.7067 108.895 36.2883 108.895 38.325V63.09C108.895 65.17 109.155 66.7733 109.675 67.9C110.239 68.9833 111.322 69.525 112.925 69.525C114.529 69.525 115.547 68.9833 115.98 67.9C116.457 66.7733 116.695 65.17 116.695 63.09V57.565H128.07V62.115C128.07 67.055 126.922 70.9117 124.625 73.685C122.329 76.415 118.429 77.78 112.925 77.78ZM134.471 24.35H158.131V32.28H146.106V45.345H155.271V53.405H146.106V69.135H158.261V77H134.471V24.35ZM163.544 24.35H171.734L182.524 49.7V24.35H192.144V77H184.279L173.489 49.7V77H163.544V24.35ZM204.724 32.995H196.794V24.35H224.289V32.995H216.424V77H204.724V32.995ZM245.555 24.35H263.235C267.872 24.35 271.339 25.6717 273.635 28.315C275.932 30.915 277.08 34.685 277.08 39.625C277.08 45.2583 275.737 49.18 273.05 51.39C270.407 53.5567 266.68 54.64 261.87 54.64H257.19V77H245.555V24.35ZM261.09 46.515C263.127 46.515 264.47 45.9733 265.12 44.89C265.814 43.8067 266.16 41.9867 266.16 39.43C266.16 37.09 265.835 35.3567 265.185 34.23C264.535 33.1033 263.149 32.54 261.025 32.54H257.19V46.515H261.09ZM282.689 24.35H297.184C302.947 24.35 307.302 25.3683 310.249 27.405C313.196 29.4417 314.669 33.06 314.669 38.26C314.669 41.77 314.214 44.565 313.304 46.645C312.394 48.725 310.704 50.35 308.234 51.52L315.449 77H303.424L297.639 53.405H294.324V77H282.689V24.35ZM297.574 46.71C299.914 46.71 301.539 46.1033 302.449 44.89C303.402 43.6333 303.879 41.77 303.879 39.3C303.879 36.9167 303.446 35.14 302.579 33.97C301.712 32.7567 300.217 32.15 298.094 32.15H294.324V46.71H297.574ZM336.236 77.78C330.559 77.78 326.508 76.3283 324.081 73.425C321.654 70.4783 320.441 66.145 320.441 60.425V40.86C320.441 35.14 321.654 30.85 324.081 27.99C326.508 25.0867 330.559 23.635 336.236 23.635C341.956 23.635 346.029 25.0867 348.456 27.99C350.926 30.8933 352.161 35.1833 352.161 40.86V60.425C352.161 66.145 350.926 70.4783 348.456 73.425C346.029 76.3283 341.956 77.78 336.236 77.78ZM336.236 69.525C337.883 69.525 338.966 68.9833 339.486 67.9C340.006 66.7733 340.266 65.2567 340.266 63.35V38C340.266 36.05 340.006 34.5333 339.486 33.45C338.966 32.3667 337.883 31.825 336.236 31.825C334.676 31.825 333.636 32.3883 333.116 33.515C332.596 34.5983 332.336 36.0933 332.336 38V63.35C332.336 65.2567 332.574 66.7733 333.051 67.9C333.528 68.9833 334.589 69.525 336.236 69.525ZM355.679 70.24C357.369 70.24 358.647 70.11 359.514 69.85C360.381 69.59 361.009 69.0917 361.399 68.355C361.789 67.575 361.984 66.4267 361.984 64.91V24.35H373.619V65.43C373.619 68.42 373.251 70.8467 372.514 72.71C371.777 74.5733 370.499 75.9817 368.679 76.935C366.902 77.8883 364.454 78.365 361.334 78.365H355.679V70.24ZM381.395 24.35H405.055V32.28H393.03V45.345H402.195V53.405H393.03V69.135H405.185V77H381.395V24.35ZM425.547 77.78C419.827 77.78 415.754 76.285 413.327 73.295C410.944 70.2617 409.752 65.9067 409.752 60.23V41.25C409.752 35.4433 410.944 31.0667 413.327 28.12C415.711 25.13 419.784 23.635 425.547 23.635C431.051 23.635 434.951 24.9567 437.247 27.6C439.544 30.2433 440.692 33.9917 440.692 38.845V43.395H429.317V38.13C429.317 36.0933 429.101 34.5333 428.667 33.45C428.234 32.3667 427.194 31.825 425.547 31.825C423.901 31.825 422.817 32.41 422.297 33.58C421.777 34.7067 421.517 36.2883 421.517 38.325V63.09C421.517 65.17 421.777 66.7733 422.297 67.9C422.861 68.9833 423.944 69.525 425.547 69.525C427.151 69.525 428.169 68.9833 428.602 67.9C429.079 66.7733 429.317 65.17 429.317 63.09V57.565H440.692V62.115C440.692 67.055 439.544 70.9117 437.247 73.685C434.951 76.415 431.051 77.78 425.547 77.78ZM451.838 32.995H443.908V24.35H471.403V32.995H463.538V77H451.838V32.995ZM490.014 77.78C484.987 77.78 481.239 76.4583 478.769 73.815C476.342 71.1283 475.042 66.8817 474.869 61.075L484.814 59.58C484.857 62.9167 485.247 65.3217 485.984 66.795C486.764 68.225 487.912 68.94 489.429 68.94C491.379 68.94 492.354 67.6617 492.354 65.105C492.354 63.0683 491.877 61.3133 490.924 59.84C490.014 58.3667 488.562 56.785 486.569 55.095L482.019 51.13C479.765 49.2233 478.01 47.2083 476.754 45.085C475.54 42.9183 474.934 40.3617 474.934 37.415C474.934 32.995 476.234 29.5933 478.834 27.21C481.477 24.8267 485.095 23.635 489.689 23.635C494.672 23.635 498.052 25.0867 499.829 27.99C501.649 30.8933 502.624 34.425 502.754 38.585L492.744 39.82C492.657 37.09 492.397 35.14 491.964 33.97C491.574 32.7567 490.685 32.15 489.299 32.15C488.302 32.15 487.522 32.5833 486.959 33.45C486.439 34.2733 486.179 35.205 486.179 36.245C486.179 38.0217 486.569 39.5167 487.349 40.73C488.172 41.9433 489.472 43.33 491.249 44.89L495.604 48.725C498.204 50.935 500.219 53.275 501.649 55.745C503.079 58.215 503.794 61.14 503.794 64.52C503.794 66.99 503.209 69.2433 502.039 71.28C500.912 73.2733 499.309 74.855 497.229 76.025C495.149 77.195 492.744 77.78 490.014 77.78Z" fill="#FEFEFE"/>
<line y1="91" x2="532" y2="91" stroke="#FE701C" stroke-width="10"/>
</svg>
