<svg width="81" height="111" viewBox="0 0 81 111" fill="none" xmlns="http://www.w3.org/2000/svg">
<path d="M13.05 28.25H28.35L39.675 89H27.3L25.275 76.175H16.35L14.25 89H1.575L13.05 28.25ZM24 68.15L20.775 44.45L17.55 68.15H24Z" fill="#D4D4D4"/>
<path d="M33.325 28.25H47.725L54.4 63.575L61.6 28.25H75.475L76.525 89H67L65.875 48.575L58.825 89H50.35L42.85 48.275L41.95 89H32.275L33.325 28.25Z" fill="#D4D4D4"/>
<line x1="72.1069" y1="87.5493" x2="69.8315" y2="32.6783" stroke="#DAA520"/>
<line x1="7.50836" y1="86.909" x2="17.5084" y2="32.909" stroke="#DAA520"/>
<line x1="32.4462" y1="87.4132" x2="24.5053" y2="33.0723" stroke="#DAA520"/>
<line x1="37.5005" y1="86.8408" x2="39.956" y2="31.9776" stroke="#DAA520"/>
<line x1="53.6963" y1="86.2275" x2="44.507" y2="32.0836" stroke="#DAA520"/>
<line x1="55.5067" y1="86.1047" x2="64.4442" y2="31.9187" stroke="#DAA520"/>
</svg>
