<svg width="78" height="63" viewBox="0 0 78 63" fill="none" xmlns="http://www.w3.org/2000/svg">
<rect x="16" y="34" width="50" height="2" rx="1" fill="white"/>
<rect x="16" y="27" width="50" height="2" rx="1" fill="white"/>
<path d="M16 42C16 41.4477 16.4477 41 17 41H65C65.5523 41 66 41.4477 66 42V42C66 42.5523 65.5523 43 65 43H17C16.4477 43 16 42.5523 16 42V42Z" fill="white"/>
<path d="M0.765 28.33H3.165V29.02C3.745 28.45 4.43 28.165 5.22 28.165C5.57 28.165 5.87 28.255 6.12 28.435C6.38 28.605 6.575 28.86 6.705 29.2C7.315 28.51 8.05 28.165 8.91 28.165C9.42 28.165 9.825 28.355 10.125 28.735C10.435 29.105 10.59 29.615 10.59 30.265V37H8.19V30.52C8.19 30.28 8.145 30.11 8.055 30.01C7.975 29.9 7.85 29.845 7.68 29.845C7.57 29.845 7.44 29.875 7.29 29.935C7.14 29.985 7 30.06 6.87 30.16V30.265V37H4.5V30.52C4.5 30.07 4.325 29.845 3.975 29.845C3.745 29.845 3.475 29.95 3.165 30.16V37H0.765V28.33Z" fill="white"/>
<path d="M42.6 18.15C41.65 18.15 40.91 17.9 40.38 17.4C39.85 16.89 39.585 16.175 39.585 15.255V12.075C39.585 11.155 39.85 10.445 40.38 9.945C40.91 9.435 41.65 9.18 42.6 9.18C43.56 9.18 44.28 9.425 44.76 9.915C45.24 10.405 45.48 11.125 45.48 12.075V13.815H42V15.48C42 16.1 42.2 16.41 42.6 16.41C43.02 16.41 43.23 16.13 43.23 15.57V14.655H45.48V15.495C45.48 16.365 45.225 17.025 44.715 17.475C44.215 17.925 43.51 18.15 42.6 18.15ZM43.23 12.675V11.805C43.23 11.485 43.17 11.26 43.05 11.13C42.94 10.99 42.785 10.92 42.585 10.92C42.395 10.92 42.25 10.995 42.15 11.145C42.05 11.295 42 11.56 42 11.94V12.675H43.23Z" fill="white"/>
<path d="M70.765 27.33H73.21V28.2C73.89 27.52 74.585 27.18 75.295 27.18C75.815 27.18 76.21 27.37 76.48 27.75C76.76 28.12 76.9 28.605 76.9 29.205V36H74.47V29.55C74.47 29.33 74.43 29.17 74.35 29.07C74.28 28.96 74.155 28.905 73.975 28.905C73.775 28.905 73.52 29.01 73.21 29.22V36H70.765V27.33Z" fill="white"/>
<path d="M41.295 59.15C40.775 59.15 40.375 58.965 40.095 58.595C39.815 58.215 39.675 57.725 39.675 57.125V50.33H42.12V56.84C42.12 57.06 42.16 57.225 42.24 57.335C42.32 57.445 42.45 57.5 42.63 57.5C42.79 57.5 43.03 57.41 43.35 57.23V50.33H45.78V59H43.35V58.205C42.67 58.835 41.985 59.15 41.295 59.15Z" fill="white"/>
</svg>
