<svg width="153" height="130" viewBox="0 0 153 130" fill="none" xmlns="http://www.w3.org/2000/svg">
<g clip-path="url(#clip0)">
<path d="M32.1427 82.1437C32.1343 85.7633 30.4397 89.2327 27.4293 91.7936C24.4189 94.3545 20.3376 95.7985 16.0778 95.81C11.8157 95.8014 7.73113 94.3586 4.71798 91.7974C1.70482 89.2362 0.00841779 85.7651 0 82.1437C0.0117903 78.5247 1.70988 75.057 4.72286 72.499C7.73583 69.941 11.8185 68.5009 16.0778 68.4938H32.1427V82.1437ZM40.2454 82.1437C40.2572 78.5257 41.9544 75.0587 44.966 72.5009C47.9776 69.943 52.0586 68.5023 56.3167 68.4938C60.5749 68.5023 64.6559 69.943 67.6675 72.5009C70.6791 75.0587 72.3763 78.5257 72.3881 82.1437V116.339C72.378 119.959 70.6818 123.428 67.6702 125.987C64.6586 128.547 60.5766 129.99 56.3167 130C52.0569 129.99 47.9749 128.547 44.9633 125.987C41.9517 123.428 40.2555 119.959 40.2454 116.339V82.1437ZM56.3167 27.3108C52.0591 27.3008 47.9791 25.8597 44.9678 23.3021C41.9566 20.7446 40.2588 17.2785 40.2454 13.6608C40.2555 10.0413 41.9517 6.57244 44.9633 4.01255C47.9749 1.45266 52.0569 0.0100122 56.3167 0C60.5766 0.0100122 64.6586 1.45266 67.6702 4.01255C70.6818 6.57244 72.378 10.0413 72.3881 13.6608V27.3108H56.3167ZM56.3167 34.1954C60.5755 34.2054 64.6565 35.6473 67.6679 38.206C70.6793 40.7648 72.3763 44.2323 72.3881 47.8508C72.3763 51.4694 70.6793 54.9369 67.6679 57.4956C64.6565 60.0543 60.5755 61.4962 56.3167 61.5062H16.0778C11.8179 61.4977 7.73526 60.0564 4.72247 57.4975C1.70967 54.9386 0.0117836 51.4703 0 47.8508C0.0117836 44.2313 1.70967 40.763 4.72247 38.2041C7.73526 35.6453 11.8179 34.204 16.0778 34.1954H56.3167ZM120.844 47.8508C120.856 44.2313 122.554 40.763 125.567 38.2041C128.58 35.6453 132.662 34.204 136.922 34.1954C141.182 34.204 145.265 35.6453 148.278 38.2041C151.29 40.763 152.988 44.2313 153 47.8508C152.988 51.4703 151.29 54.9386 148.278 57.4975C145.265 60.0564 141.182 61.4977 136.922 61.5062H120.844V47.8508ZM112.761 47.8508C112.749 51.4713 111.05 54.9404 108.036 57.4994C105.022 60.0585 100.938 61.4991 96.6769 61.5062C92.4187 61.4962 88.3384 60.0542 85.328 57.4953C82.3176 54.9364 80.622 51.4689 80.6119 47.8508V13.6608C80.6203 10.0418 82.3151 6.57293 85.3257 4.01289C88.3363 1.45284 92.4176 0.0100179 96.6769 0C100.939 0.00715237 105.024 1.44854 108.039 4.00874C111.053 6.56894 112.751 10.0395 112.761 13.6608V47.8508ZM96.6769 102.678C100.939 102.685 105.024 104.127 108.039 106.687C111.053 109.247 112.751 112.718 112.761 116.339C112.751 119.961 111.053 123.431 108.039 125.991C105.024 128.551 100.939 129.993 96.6769 130C92.4176 129.99 88.3363 128.547 85.3257 125.987C82.3151 123.427 80.6203 119.958 80.6119 116.339V102.678H96.6769ZM96.6769 95.81C92.4165 95.8 88.3342 94.3564 85.3235 91.7952C82.3127 89.234 80.6186 85.7637 80.6119 82.1437C80.622 78.5262 82.3178 75.0592 85.3284 72.5012C88.3389 69.9432 92.4193 68.5023 96.6769 68.4938H136.922C141.182 68.5009 145.264 69.941 148.277 72.499C151.29 75.057 152.988 78.5247 153 82.1437C152.992 85.7651 151.295 89.2362 148.282 91.7974C145.269 94.3586 141.184 95.8014 136.922 95.81H96.6769Z" fill="#C65715"/>
</g>
<defs>
<clipPath id="clip0">
<rect width="153" height="130" fill="white"/>
</clipPath>
</defs>
</svg>
