<svg width="149" height="96" viewBox="0 0 149 96" fill="none" xmlns="http://www.w3.org/2000/svg">
<path d="M69.1484 71.6684C69.1484 77.9457 65.5058 83.9658 59.0219 88.4044C52.5379 92.8431 43.7439 95.3367 34.5742 95.3367C25.4046 95.3367 16.6105 92.8431 10.1266 88.4044C3.64263 83.9658 0 77.9457 0 71.6684C0 65.3912 3.64263 59.3711 10.1266 54.9325C16.6105 50.4938 25.4046 48.0002 34.5742 48.0002C43.7439 48.0002 52.5379 50.4938 59.0219 54.9325C65.5058 59.3711 69.1484 65.3912 69.1484 71.6684ZM109.074 24.3319C109.074 30.6092 105.432 36.6293 98.9477 41.0679C92.4637 45.5066 83.6697 48.0002 74.5 48.0002C65.3304 48.0002 56.5363 45.5066 50.0523 41.0679C43.5684 36.6293 39.9258 30.6092 39.9258 24.3319C39.9258 18.0547 43.5684 12.0346 50.0523 7.59597C56.5363 3.15731 65.3304 0.663696 74.5 0.663696C83.6697 0.663696 92.4637 3.15731 98.9477 7.59597C105.432 12.0346 109.074 18.0547 109.074 24.3319ZM149 71.6684C149 77.9457 145.357 83.9658 138.873 88.4044C132.39 92.8431 123.595 95.3367 114.426 95.3367C105.256 95.3367 96.4621 92.8431 89.9781 88.4044C83.4942 83.9658 79.8516 77.9457 79.8516 71.6684C79.8516 65.3912 83.4942 59.3711 89.9781 54.9325C96.4621 50.4938 105.256 48.0002 114.426 48.0002C123.595 48.0002 132.39 50.4938 138.873 54.9325C145.357 59.3711 149 65.3912 149 71.6684Z" fill="#FF701B"/>
</svg>
